<?xml version="1.0" encoding="UTF-8"?>
<svg id="Layer_2" xmlns="http://www.w3.org/2000/svg" xmlns:xlink="http://www.w3.org/1999/xlink" viewBox="0 0 430 430">
<defs>
<style>
.cls-1{filter:url(#drop-shadow-2);}
.cls-2{fill:url(#WhiteE);}
@media (prefers-color-scheme: light) {
    .cls-2{fill:url(#WhiteE);}
}
@media (prefers-color-scheme: dark) {
    .cls-2{fill:url(#Black);}
}
.cls-3{fill:none;}
.cls-4{fill:url(#Black);filter:url(#drop-shadow-1);}
@media (prefers-color-scheme: light) {
    .cls-4{fill:url(#Black);filter:url(#drop-shadow-1);}
}
@media (prefers-color-scheme: dark) {
    .cls-4{fill:url(#WhiteSquare);filter:url(#drop-shadow-1);}
}
.cls-5{fill:url(#Blue);}
</style>
<radialGradient id="Black" cx="212.46" cy="212.46" fx="212.46" fy="212.46" r="202.61" gradientUnits="userSpaceOnUse">
<stop offset="0" stop-color="#51504f"/>
<stop offset="1" stop-color="#3d3d3c"/>
</radialGradient>
<filter id="drop-shadow-1" filterUnits="userSpaceOnUse">
<feOffset dx="2.5" dy="2.5"/>
<feGaussianBlur result="blur" stdDeviation="4"/>
<feFlood flood-color="#000" flood-opacity=".25"/>
<feComposite in2="blur" operator="in"/>
<feComposite in="SourceGraphic"/>
</filter><filter id="drop-shadow-2" filterUnits="userSpaceOnUse">
<feOffset dx="2.5" dy="2.5"/>
<feGaussianBlur result="blur-2" stdDeviation="4"/>
<feFlood flood-color="#000" flood-opacity=".25"/>
<feComposite in2="blur-2" operator="in"/>
<feComposite in="SourceGraphic"/>
</filter>
<linearGradient id="Blue" x1="177.2" y1="246.27" x2="354.27" y2="69.2" gradientUnits="userSpaceOnUse">
<stop offset="0" stop-color="#5662d5"/>
<stop offset="1" stop-color="#3498db"/>
</linearGradient>
<linearGradient id="WhiteE" x1="79.08" y1="365.62" x2="198.75" y2="245.95" gradientUnits="userSpaceOnUse">
<stop offset="0" stop-color="#dcddde"/>
<stop offset="1" stop-color="#c7c8ca"/>
</linearGradient>
<linearGradient id="WhiteSquare" x1="69.93" y1="359.2" x2="316.43" y2="112.7" gradientUnits="userSpaceOnUse">
<stop offset="0" stop-color="#dcddde"/>
<stop offset="1" stop-color="#c7c8ca"/>
</linearGradient>
</defs>
<g id="Layer_1-2">
<g>
<path class="cls-4" d="m278.83,349.73l135.5-135.5c.98-.98.98-2.56,0-3.54L214.22,10.58c-.98-.98-2.56-.98-3.54,0L10.58,210.69c-.98.98-.98,2.56,0,3.54l55.88,55.88v83.86c0,2.48,2.01,4.5,4.5,4.5h83.86l55.88,55.88c.98.98,2.56.98,3.54,0l55.88-55.88h6.2c1.74,0,3.42-.89,4.21-2.44.84-1.64.62-3.55-.55-4.95l-1.13-1.34Zm-207.88,6.73c-1.38,0-2.5-1.12-2.5-2.5v-81.86l84.35,84.35h-81.86Zm205.56,0h-4.41l5.31-5.31,1.01,1.21c1.36,1.63.21,4.1-1.91,4.1Z"/><g class="cls-1"><g><path class="cls-5" d="m284.46,73.46v71.45c0,4.67-5.83,6.79-8.83,3.21l-65.35-77.88c-.95-1.13-2.35-1.79-3.83-1.79H73.45c-2.76,0-5,2.24-5,5v62c0,2.76,2.24,5,5,5h99.42c1.48,0,2.88.65,3.83,1.79l175.33,208.95c1.5,1.79,4.42.73,4.42-1.61V73.46c0-2.76-2.24-5-5-5h-62c-2.76,0-5,2.24-5,5Z"/><path class="cls-3" d="m351.46,68.46c2.76,0,5,2.24,5,5v276.13c0,1.52-1.24,2.51-2.52,2.51-.68,0-1.37-.28-1.89-.9l-175.33-208.95c-.95-1.13-2.35-1.79-3.83-1.79h-99.42c-2.76,0-5-2.24-5-5v-62c0-2.76,2.24-5,5-5h133c1.48,0,2.88.65,3.83,1.79l65.35,77.88c1.04,1.24,2.42,1.8,3.78,1.8,2.56,0,5.04-1.96,5.04-5.01v-71.45c0-2.76,2.24-5,5-5h62m0-1h-62c-3.31,0-6,2.69-6,6v71.45c0,2.51-2.06,4.01-4.04,4.01-1.17,0-2.24-.51-3.02-1.44l-65.35-77.88c-1.14-1.36-2.82-2.14-4.6-2.14H73.45c-3.31,0-6,2.69-6,6v62c0,3.31,2.69,6,6,6h99.42c1.18,0,2.3.52,3.06,1.43l175.33,208.95c.68.81,1.62,1.26,2.66,1.26,1.73,0,3.52-1.31,3.52-3.51V73.46c0-3.31-2.69-6-6-6h0Z"/></g><path class="cls-2" d="m220.29,284.46h-95.42c-1.38,0-2.5-1.12-2.5-2.51l.08-19.09c0-.58.21-1.15.58-1.59l17.55-20.92c.47-.57,1.17-.89,1.91-.89h35.84c2.12,0,3.28-2.48,1.91-4.1l-41.12-49.01c-.47-.57-1.17-.89-1.91-.89h-66.27c-1.38,0-2.5,1.12-2.5,2.5v166.01c0,1.38,1.12,2.5,2.5,2.5h205.56c2.12,0,3.28-2.48,1.91-4.1l-56.22-67.01c-.47-.57-1.17-.89-1.91-.89Z"/>
</g>
</g>
</g>
</svg>