<?xml version="1.0" standalone="no"?>
<!DOCTYPE svg PUBLIC "-//W3C//DTD SVG 20010904//EN" "http://www.w3.org/TR/2001/REC-SVG-20010904/DTD/svg10.dtd">
<!-- Created using Krita: https://krita.org -->
<svg xmlns="http://www.w3.org/2000/svg" 
    xmlns:xlink="http://www.w3.org/1999/xlink"
    xmlns:krita="http://krita.org/namespaces/svg/krita"
    xmlns:sodipodi="http://sodipodi.sourceforge.net/DTD/sodipodi-0.dtd"
    width="1036.8pt"
    height="230.4pt"
    viewBox="0 0 1036.8 230.4">
<defs/>
<path id="shape0" transform="matrix(0.72 0 0 0.72 -1.07052142488388 6.03961325396085e-14)" fill="#f4f6f8" stroke-opacity="0" stroke="#000000" stroke-width="0" stroke-linecap="square" stroke-linejoin="bevel" d="M0 84.7496C10.6557 89.2101 -20.3201 102.592 31.967 98.1311C43.3591 98.3785 40.0062 158.56 127.868 160C179.545 151.197 184.229 129.559 209.644 97.3877C225.855 99.2511 239.652 97.2677 260.94 88.4667C271.828 108.446 277.432 130.242 302.571 141.249C334.277 158.447 349.623 153.976 366.505 160C383.142 171.839 386.439 242.798 500.32 253.505C543.62 253.205 608.721 224.265 637.109 152.401C674.362 171.633 724.579 136.175 740.444 108.539C746.137 107.209 751.254 136.065 808.095 109.282C830.081 124.347 835.714 152.953 900.279 145.71C921.233 181.331 956.316 225.276 1037.23 216C1079.64 226.796 1148.7 201.95 1167.91 146.453C1219.14 148.543 1237.65 148.887 1273.47 100.361C1302.31 113.539 1310.2 119.055 1344.1 101.105C1379.54 99.3702 1385.23 82.7672 1394.65 60.2168C1441.73 55.7563 1457.59 19.3289 1442.23 0L1420.43 0C1398.63 0 1355.23 0 1311.23 0C1267.73 0 1224.23 0 1180.23 0C1136.73 0 1093.23 0 1049.23 0C1005.83 0 962.23 0 918.23 0C874.93 0 831.23 0 787.23 0C744.03 0 700.23 0 657.23 0C613.13 0 569.23 0 526.23 0C482.23 0 438.23 0 395.23 0C351.33 0 307.23 0 264.23 0C220.43 0 177.23 0 133.23 0C89.5303 0 46.2303 0 24.2303 0L2.23025 0Z" sodipodi:nodetypes="cccccccccccccccccccccccccccccccc"/>
</svg>
